<mxfile host="app.diagrams.net" agent="Mozilla/5.0 (Windows NT 10.0; Win64; x64) AppleWebKit/537.36 (KHTML, like Gecko) Chrome/138.0.0.0 Safari/537.36" version="27.2.0">
  <diagram name="Order Lifecycle" id="0">
    <mxGraphModel dx="819" dy="705" grid="1" gridSize="10" guides="1" tooltips="1" connect="1" arrows="1" fold="1" page="1" pageScale="1" pageWidth="850" pageHeight="1100" math="0" shadow="0">
      <root>
        <mxCell id="0" />
        <mxCell id="1" parent="0" />
        <mxCell id="n1" value="Customer" style="rounded=1;html=1;fillColor=#d5e8d4;strokeColor=#82b366;" parent="1" vertex="1">
          <mxGeometry x="140" y="50" width="100" height="40" as="geometry" />
        </mxCell>
        <mxCell id="n2" value="API" style="rounded=1;html=1;fillColor=#dae8fc;strokeColor=#6c8ebf;" parent="1" vertex="1">
          <mxGeometry x="140" y="190" width="100" height="40" as="geometry" />
        </mxCell>
        <mxCell id="n3" value="Payment Service" style="rounded=1;html=1;fillColor=#e1d5e7;strokeColor=#9673a6;" parent="1" vertex="1">
          <mxGeometry x="130" y="340" width="120" height="40" as="geometry" />
        </mxCell>
        <mxCell id="n4" value="Payment Gateway" style="rounded=1;html=1;fillColor=#ffe6cc;strokeColor=#d79b00;" parent="1" vertex="1">
          <mxGeometry x="390" y="340" width="120" height="40" as="geometry" />
        </mxCell>
        <mxCell id="n5" value="Order Service" style="rounded=1;html=1;fillColor=#f8cecc;strokeColor=#b85450;" parent="1" vertex="1">
          <mxGeometry x="380" y="190" width="120" height="40" as="geometry" />
        </mxCell>
        <mxCell id="n6" value="SQL DB" style="rounded=1;html=1;fillColor=#fff2cc;strokeColor=#d6b656;" parent="1" vertex="1">
          <mxGeometry x="640" y="190" width="140" height="40" as="geometry" />
        </mxCell>
        <mxCell id="e1" value="1. POST /payment" style="endArrow=block;html=1;" parent="1" edge="1">
          <mxGeometry relative="1" as="geometry">
            <mxPoint x="224" y="90" as="sourcePoint" />
            <mxPoint x="224" y="190" as="targetPoint" />
          </mxGeometry>
        </mxCell>
        <mxCell id="e2" value="PayAsync" style="endArrow=block;html=1;" parent="1" edge="1">
          <mxGeometry relative="1" as="geometry">
            <mxPoint x="158" y="230" as="sourcePoint" />
            <mxPoint x="158" y="340" as="targetPoint" />
          </mxGeometry>
        </mxCell>
        <mxCell id="e3" value="Authorise" style="endArrow=block;html=1;" parent="1" edge="1">
          <mxGeometry relative="1" as="geometry">
            <mxPoint x="250" y="354" as="sourcePoint" />
            <mxPoint x="390" y="354" as="targetPoint" />
          </mxGeometry>
        </mxCell>
        <mxCell id="e4" value="txId" style="endArrow=open;html=1;" parent="1" edge="1">
          <mxGeometry relative="1" as="geometry">
            <mxPoint x="390" y="373" as="sourcePoint" />
            <mxPoint x="250" y="373" as="targetPoint" />
          </mxGeometry>
        </mxCell>
        <mxCell id="e5" value="txId" style="endArrow=open;html=1;" parent="1" edge="1">
          <mxGeometry relative="1" as="geometry">
            <mxPoint x="225" y="340" as="sourcePoint" />
            <mxPoint x="225" y="230" as="targetPoint" />
          </mxGeometry>
        </mxCell>
        <mxCell id="e8" value="PlaceOrderAsync" style="endArrow=block;html=1;" parent="1" edge="1">
          <mxGeometry relative="1" as="geometry">
            <mxPoint x="240" y="204" as="sourcePoint" />
            <mxPoint x="380" y="204" as="targetPoint" />
          </mxGeometry>
        </mxCell>
        <mxCell id="e9" value="insert Order" style="endArrow=block;html=1;" parent="1" edge="1">
          <mxGeometry relative="1" as="geometry">
            <mxPoint x="500" y="204" as="sourcePoint" />
            <mxPoint x="639.9999999999998" y="204" as="targetPoint" />
          </mxGeometry>
        </mxCell>
        <mxCell id="e10" value="commit OK" style="endArrow=open;html=1;" parent="1" edge="1">
          <mxGeometry relative="1" as="geometry">
            <mxPoint x="639.9999999999998" y="223" as="sourcePoint" />
            <mxPoint x="500" y="223" as="targetPoint" />
          </mxGeometry>
        </mxCell>
        <mxCell id="e11" value="201 Created" style="endArrow=open;html=1;" parent="1" edge="1">
          <mxGeometry relative="1" as="geometry">
            <mxPoint x="380" y="225" as="sourcePoint" />
            <mxPoint x="240" y="225" as="targetPoint" />
          </mxGeometry>
        </mxCell>
        <mxCell id="e12" value="201" style="endArrow=open;html=1;" parent="1" edge="1">
          <mxGeometry relative="1" as="geometry">
            <mxPoint x="157" y="190" as="sourcePoint" />
            <mxPoint x="157" y="90" as="targetPoint" />
          </mxGeometry>
        </mxCell>
      </root>
    </mxGraphModel>
  </diagram>
</mxfile>
